<svg width="24" height="24" viewBox="0 0 24 24" fill="none" xmlns="http://www.w3.org/2000/svg">
<g id="Iconly/Light-Outline/Hide">
<g id="Hide">
<path id="Fill 1" fill-rule="evenodd" clip-rule="evenodd" d="M9.76069 15.6172C9.56869 15.6172 9.37669 15.5442 9.23069 15.3972C8.49269 14.6602 8.08569 13.6802 8.08569 12.6382C8.08569 10.4782 9.84169 8.72119 11.9997 8.72119C13.0377 8.72119 14.0457 9.14019 14.7647 9.87119C15.0547 10.1672 15.0517 10.6412 14.7557 10.9312C14.4607 11.2232 13.9867 11.2182 13.6957 10.9242C13.2567 10.4772 12.6387 10.2212 11.9997 10.2212C10.6687 10.2212 9.58569 11.3052 9.58569 12.6382C9.58569 13.2792 9.83669 13.8832 10.2907 14.3372C10.5837 14.6302 10.5837 15.1042 10.2917 15.3972C10.1447 15.5442 9.95269 15.6172 9.76069 15.6172Z" fill="#212121"/>
<path id="Fill 3" fill-rule="evenodd" clip-rule="evenodd" d="M12.5673 16.4912C12.2123 16.4912 11.8963 16.2372 11.8303 15.8752C11.7563 15.4682 12.0263 15.0772 12.4343 15.0032C13.4143 14.8252 14.1903 14.0472 14.3663 13.0662C14.4403 12.6592 14.8303 12.3912 15.2373 12.4612C15.6453 12.5342 15.9163 12.9242 15.8433 13.3322C15.5563 14.9252 14.2943 16.1892 12.7023 16.4792C12.6573 16.4872 12.6113 16.4912 12.5673 16.4912Z" fill="#212121"/>
<g id="Group 7">
<mask id="mask0_430_8722" style="mask-type:alpha" maskUnits="userSpaceOnUse" x="2" y="4" width="17" height="15">
<path id="Clip 6" fill-rule="evenodd" clip-rule="evenodd" d="M2 4.62439H18.0862V18.7225H2V4.62439Z" fill="white"/>
</mask>
<g mask="url(#mask0_430_8722)">
<path id="Fill 5" fill-rule="evenodd" clip-rule="evenodd" d="M6.6545 18.7225C6.4925 18.7225 6.3295 18.6695 6.1915 18.5625C4.5005 17.2345 3.0715 15.2875 2.0615 12.9335C1.9795 12.7435 1.9795 12.5295 2.0615 12.3405C3.0825 9.97652 4.5205 8.01952 6.2205 6.68252C9.6865 3.93952 14.3005 3.93052 17.8015 6.70252C18.1265 6.95952 18.1815 7.43152 17.9245 7.75652C17.6665 8.07952 17.1965 8.13652 16.8705 7.87852C13.9045 5.53052 10.0835 5.53852 7.1495 7.86052C5.7135 8.99052 4.4805 10.6365 3.5705 12.6385C4.4715 14.6285 5.6935 16.2645 7.1185 17.3825C7.4445 17.6385 7.5005 18.1105 7.2445 18.4355C7.0965 18.6235 6.8765 18.7225 6.6545 18.7225Z" fill="#212121"/>
</g>
</g>
<g id="Group 10">
<mask id="mask1_430_8722" style="mask-type:alpha" maskUnits="userSpaceOnUse" x="8" y="8" width="14" height="13">
<path id="Clip 9" fill-rule="evenodd" clip-rule="evenodd" d="M8.71753 8.74121H22.0001V20.6894H8.71753V8.74121Z" fill="white"/>
</mask>
<g mask="url(#mask1_430_8722)">
<path id="Fill 8" fill-rule="evenodd" clip-rule="evenodd" d="M12.0002 20.6894C11.0632 20.6894 10.1312 20.5374 9.23116 20.2384C8.83816 20.1074 8.62516 19.6824 8.75616 19.2894C8.88716 18.8954 9.31016 18.6864 9.70516 18.8144C10.4522 19.0634 11.2242 19.1894 12.0002 19.1894C15.4282 19.1894 18.5612 16.7474 20.4302 12.6364C19.9742 11.6374 19.4432 10.7324 18.8492 9.94242C18.6002 9.61142 18.6662 9.14042 18.9972 8.89142C19.3272 8.64242 19.7982 8.71042 20.0472 9.04042C20.7712 10.0014 21.4072 11.1124 21.9382 12.3384C22.0212 12.5284 22.0212 12.7444 21.9382 12.9334C19.8422 17.7904 16.1272 20.6894 12.0002 20.6894Z" fill="#212121"/>
</g>
</g>
<g id="Group 13">
<mask id="mask2_430_8722" style="mask-type:alpha" maskUnits="userSpaceOnUse" x="3" y="4" width="18" height="18">
<path id="Clip 12" fill-rule="evenodd" clip-rule="evenodd" d="M3.36353 4.00037H20.637V21.2734H3.36353V4.00037Z" fill="white"/>
</mask>
<g mask="url(#mask2_430_8722)">
<path id="Fill 11" fill-rule="evenodd" clip-rule="evenodd" d="M4.11328 21.2734C3.92128 21.2734 3.72928 21.2004 3.58328 21.0534C3.29028 20.7604 3.29028 20.2864 3.58328 19.9934L19.3573 4.21938C19.6503 3.92638 20.1243 3.92638 20.4173 4.21938C20.7103 4.51238 20.7103 4.98738 20.4173 5.28038L4.64328 21.0534C4.49728 21.2004 4.30528 21.2734 4.11328 21.2734Z" fill="#212121"/>
</g>
</g>
</g>
</g>
</svg>
