<svg width="24" height="24" viewBox="0 0 24 24" fill="none" xmlns="http://www.w3.org/2000/svg">
<g id="Iconly/Light-Outline/More Circle">
<g id="More Circle">
<path id="Fill 1" fill-rule="evenodd" clip-rule="evenodd" d="M12 3.5C7.313 3.5 3.5 7.313 3.5 12C3.5 16.687 7.313 20.5 12 20.5C16.687 20.5 20.5 16.687 20.5 12C20.5 7.313 16.687 3.5 12 3.5ZM12 22C6.486 22 2 17.514 2 12C2 6.486 6.486 2 12 2C17.514 2 22 6.486 22 12C22 17.514 17.514 22 12 22Z" fill="#212121"/>
<path id="Fill 3" fill-rule="evenodd" clip-rule="evenodd" d="M15.9481 13.0137C15.3951 13.0137 14.9431 12.5667 14.9431 12.0137C14.9431 11.4607 15.3861 11.0137 15.9381 11.0137H15.9481C16.5011 11.0137 16.9481 11.4607 16.9481 12.0137C16.9481 12.5667 16.5011 13.0137 15.9481 13.0137Z" fill="#212121"/>
<path id="Fill 5" fill-rule="evenodd" clip-rule="evenodd" d="M11.9386 13.0137C11.3856 13.0137 10.9346 12.5667 10.9346 12.0137C10.9346 11.4607 11.3766 11.0137 11.9296 11.0137H11.9386C12.4916 11.0137 12.9386 11.4607 12.9386 12.0137C12.9386 12.5667 12.4916 13.0137 11.9386 13.0137Z" fill="#212121"/>
<path id="Fill 7" fill-rule="evenodd" clip-rule="evenodd" d="M7.9298 13.0137C7.3768 13.0137 6.9248 12.5667 6.9248 12.0137C6.9248 11.4607 7.3678 11.0137 7.9208 11.0137H7.9298C8.4828 11.0137 8.9298 11.4607 8.9298 12.0137C8.9298 12.5667 8.4828 13.0137 7.9298 13.0137Z" fill="#212121"/>
</g>
</g>
</svg>
